<svg xmlns="http://www.w3.org/2000/svg" viewBox="0 0 512 512" fill="none">
  <!-- 成龍 -->
  <ellipse cx="256" cy="444" rx="104" ry="15" fill="#000000" opacity="0.06"/>
  <path d="M306 398 q64 12 66 -28 q2 -20 -18 -16" fill="none" stroke="#3E5C78" stroke-width="16" stroke-linecap="round"/>
  <path d="M356 348 l20 -8 l-5 20 z" fill="#5B7B9A"/>
  <!-- 展開的翅膀 -->
  <defs><clipPath id="w4">
    <path d="M212 342 C 168 308 128 286 96 292 C 110 326 116 366 150 384 C 174 374 198 360 212 342 Z"/>
    <path transform="matrix(-1 0 0 1 512 0)" d="M212 342 C 168 308 128 286 96 292 C 110 326 116 366 150 384 C 174 374 198 360 212 342 Z"/>
  </clipPath></defs>
  <g fill="#5B7B9A">
    <path d="M212 342 C 168 308 128 286 96 292 C 110 326 116 366 150 384 C 174 374 198 360 212 342 Z"/>
    <g transform="matrix(-1 0 0 1 512 0)"><path d="M212 342 C 168 308 128 286 96 292 C 110 326 116 366 150 384 C 174 374 198 360 212 342 Z"/></g>
  </g>
  <g clip-path="url(#w4)" stroke="#456A88" stroke-width="2.5" fill="none" opacity="0.7">
    <path d="M120 300 L150 380"/><path d="M148 292 L168 374"/>
    <path d="M392 300 L362 380"/><path d="M364 292 L344 374"/>
  </g>
  <circle cx="256" cy="358" r="56" fill="#3E5C78"/>
  <ellipse cx="256" cy="384" rx="27" ry="30" fill="#EAD9B0"/>
  <path d="M228 308 l-9 -28 l17 13 z" fill="#EAD9B0"/>
  <path d="M284 308 l9 -28 l-17 13 z" fill="#EAD9B0"/>
  <g fill="#2E4860"><path d="M256 304 l-9 -18 l-9 18 z"/><path d="M238 308 l-7 -14 l-7 14 z"/><path d="M274 308 l7 -14 l7 14 z"/></g>
  <circle cx="238" cy="350" r="10" fill="#fff"/><circle cx="274" cy="350" r="10" fill="#fff"/>
  <circle cx="240" cy="351" r="5.4" fill="#2A2A2A"/><circle cx="272" cy="351" r="5.4" fill="#2A2A2A"/>
  <circle cx="242" cy="349" r="2" fill="#fff"/><circle cx="274" cy="349" r="2" fill="#fff"/>
  <path d="M246 376 q10 7 20 0" stroke="#2A485F" stroke-width="3" fill="none" stroke-linecap="round"/>
  <g fill="#3E5C78"><ellipse cx="238" cy="412" rx="14" ry="9"/><ellipse cx="276" cy="412" rx="14" ry="9"/></g>
</svg>
