<svg xmlns="http://www.w3.org/2000/svg" viewBox="0 0 512 512" fill="none">
  <defs>
    <radialGradient id="id5-aura" cx="0.5" cy="0.5" r="0.5">
      <stop offset="0" stop-color="#9BE3F0" stop-opacity="0.55"/><stop offset="0.7" stop-color="#7FA8CC" stop-opacity="0.25"/><stop offset="1" stop-color="#7FA8CC" stop-opacity="0"/>
    </radialGradient>
    <radialGradient id="id5-body" cx="0.36" cy="0.28" r="1">
      <stop offset="0" stop-color="#7FA8CC"/><stop offset="0.55" stop-color="#3E6386"/><stop offset="1" stop-color="#253F5C"/>
    </radialGradient>
    <radialGradient id="id5-belly" cx="0.5" cy="0.3" r="0.9">
      <stop offset="0" stop-color="#FFF8E6"/><stop offset="1" stop-color="#EFD9A8"/>
    </radialGradient>
    <linearGradient id="id5-wing" x1="0.2" y1="0" x2="0.9" y2="1">
      <stop offset="0" stop-color="#A4D4EC"/><stop offset="1" stop-color="#44688C"/>
    </linearGradient>
  </defs>
  <circle cx="256" cy="268" r="226" fill="url(#id5-aura)"/>
  <ellipse cx="256" cy="470" rx="96" ry="13" fill="#1C3553" opacity="0.12"/>
  <!-- 大翅膀 -->
  <path d="M152 250 C 112 168 62 118 8 110 C 12 188 32 272 104 320 C 126 302 142 278 152 250 Z"
        fill="url(#id5-wing)" stroke="#1C3553" stroke-width="10" stroke-linejoin="round"/>
  <path d="M40 138 L 100 302 M 80 124 L 126 278 M 120 120 L 148 246" stroke="#2C4A68" stroke-width="6" stroke-linecap="round" opacity="0.55"/>
  <path d="M360 250 C 400 168 450 118 504 110 C 500 188 480 272 408 320 C 386 302 370 278 360 250 Z"
        fill="url(#id5-wing)" stroke="#1C3553" stroke-width="10" stroke-linejoin="round"/>
  <path d="M472 138 L 412 302 M 432 124 L 386 278 M 392 120 L 364 246" stroke="#2C4A68" stroke-width="6" stroke-linecap="round" opacity="0.55"/>
  <!-- 墨筆尾 + 墨痕 -->
  <path d="M348 390 q96 22 106 -62 q4 -36 -30 -34" stroke="#2C4A68" stroke-width="26" fill="none" stroke-linecap="round"/>
  <path d="M440 278 q-18 30 -34 28 q4 -42 14 -60 q18 10 20 32 z" fill="#16263C"/>
  <path d="M398 332 q26 18 14 44" stroke="#16263C" stroke-width="7" fill="none" stroke-linecap="round" opacity="0.7"/>
  <circle cx="416" cy="384" r="6" fill="#16263C" opacity="0.8"/>
  <!-- 背刺 -->
  <path d="M202 128 l-18 -44 38 22 z" fill="#57809F" stroke="#1C3553" stroke-width="7" stroke-linejoin="round"/>
  <path d="M310 128 l18 -44 -38 22 z" fill="#57809F" stroke="#1C3553" stroke-width="7" stroke-linejoin="round"/>
  <path d="M256 118 l-2 -50 26 34 z" fill="#57809F" stroke="#1C3553" stroke-width="7" stroke-linejoin="round"/>
  <!-- 身體（浮空） -->
  <path d="M256 114 C 154 114 114 218 114 310 C 114 400 176 450 256 450 C 336 450 398 400 398 310 C 398 218 358 114 256 114 Z"
        fill="url(#id5-body)" stroke="#1C3553" stroke-width="11"/>
  <ellipse cx="256" cy="380" rx="80" ry="58" fill="url(#id5-belly)"/>
  <path d="M190 360 q66 20 132 0 M198 396 q58 18 116 0" stroke="#D9BC85" stroke-width="6" fill="none" stroke-linecap="round" opacity="0.8"/>
  <!-- 神龍金角 -->
  <path d="M186 138 q-40 -40 -36 -90 q48 18 62 66 z" fill="#F4D88C" stroke="#C9994A" stroke-width="8" stroke-linejoin="round"/>
  <path d="M326 138 q40 -40 36 -90 q-48 18 -62 66 z" fill="#F4D88C" stroke="#C9994A" stroke-width="8" stroke-linejoin="round"/>
  <!-- 龍鬚 -->
  <path d="M214 330 q-50 18 -64 56 q-6 18 8 26" stroke="#F0CF82" stroke-width="7" fill="none" stroke-linecap="round"/>
  <path d="M298 330 q50 18 64 56 q6 18 -8 26" stroke="#F0CF82" stroke-width="7" fill="none" stroke-linecap="round"/>
  <!-- 金瞳眼睛 -->
  <path d="M172 250 l58 12" stroke="#16263C" stroke-width="9" stroke-linecap="round"/>
  <ellipse cx="206" cy="280" rx="23" ry="26" fill="#16263C"/>
  <ellipse cx="206" cy="282" rx="12" ry="15" fill="#E8B54E"/>
  <circle cx="199" cy="270" r="8" fill="#FFFFFF"/><circle cx="214" cy="292" r="4" fill="#FFFFFF" opacity="0.9"/>
  <path d="M340 250 l-58 12" stroke="#16263C" stroke-width="9" stroke-linecap="round"/>
  <ellipse cx="306" cy="280" rx="23" ry="26" fill="#16263C"/>
  <ellipse cx="306" cy="282" rx="12" ry="15" fill="#E8B54E"/>
  <circle cx="299" cy="270" r="8" fill="#FFFFFF"/><circle cx="314" cy="292" r="4" fill="#FFFFFF" opacity="0.9"/>
  <ellipse cx="166" cy="318" rx="15" ry="10" fill="#F09A9C" opacity="0.5"/>
  <ellipse cx="346" cy="318" rx="15" ry="10" fill="#F09A9C" opacity="0.5"/>
  <path d="M228 316 q28 22 56 0" stroke="#16263C" stroke-width="8" fill="none" stroke-linecap="round"/>
  <path d="M238 320 l7 13 7 -13 M260 324 l7 13 7 -13" fill="#FFFFFF" stroke="#16263C" stroke-width="4" stroke-linejoin="round"/>
  <ellipse cx="194" cy="186" rx="34" ry="20" fill="#FFFFFF" opacity="0.3" transform="rotate(-20 194 186)"/>
  <!-- 星光 -->
  <path d="M96 96 l7 18 18 7 -18 7 -7 18 -7 -18 -18 -7 18 -7 z" fill="#F0CF82"/>
  <path d="M428 84 l5 14 14 5 -14 5 -5 14 -5 -14 -14 -5 14 -5 z" fill="#F0CF82"/>
  <path d="M448 396 l4 11 11 4 -11 4 -4 11 -4 -11 -11 -4 11 -4 z" fill="#9BE3F0"/>
  <path d="M70 360 l4 11 11 4 -11 4 -4 11 -4 -11 -11 -4 11 -4 z" fill="#9BE3F0"/>
</svg>
