<svg xmlns="http://www.w3.org/2000/svg" viewBox="0 0 512 512" fill="none">
  <defs>
    <radialGradient id="bd1-body" cx="0.36" cy="0.3" r="1">
      <stop offset="0" stop-color="#FFF2B8"/><stop offset="0.55" stop-color="#FFDD66"/><stop offset="1" stop-color="#F2BB3C"/>
    </radialGradient>
    <radialGradient id="bd1-shell" cx="0.4" cy="0.2" r="1">
      <stop offset="0" stop-color="#FFFDF4"/><stop offset="1" stop-color="#EFD9A8"/>
    </radialGradient>
  </defs>
  <ellipse cx="256" cy="450" rx="120" ry="18" fill="#8A6B3A" opacity="0.15"/>
  <!-- 雛鳥（從蛋裡探頭） -->
  <circle cx="256" cy="240" r="120" fill="url(#bd1-body)" stroke="#B97E26" stroke-width="11"/>
  <!-- 呆毛 -->
  <path d="M250 124 q-4 -34 14 -48 q10 22 0 46" fill="#FFDD66" stroke="#B97E26" stroke-width="8" stroke-linejoin="round"/>
  <!-- 眼睛 -->
  <ellipse cx="210" cy="234" rx="19" ry="24" fill="#3A2A14"/>
  <circle cx="204" cy="225" r="7.5" fill="#FFFFFF"/><circle cx="216" cy="243" r="3.5" fill="#FFFFFF" opacity="0.9"/>
  <ellipse cx="302" cy="234" rx="19" ry="24" fill="#3A2A14"/>
  <circle cx="296" cy="225" r="7.5" fill="#FFFFFF"/><circle cx="308" cy="243" r="3.5" fill="#FFFFFF" opacity="0.9"/>
  <!-- 嘴喙 -->
  <path d="M238 262 L 256 286 L 274 262 Q 256 252 238 262 Z" fill="#F49B3C" stroke="#C76A1B" stroke-width="7" stroke-linejoin="round"/>
  <ellipse cx="176" cy="272" rx="15" ry="10" fill="#FF9EA0" opacity="0.65"/>
  <ellipse cx="336" cy="272" rx="15" ry="10" fill="#FF9EA0" opacity="0.65"/>
  <!-- 下半蛋殼 -->
  <path d="M132 332 L 152 360 L 176 334 L 200 362 L 226 334 L 256 364 L 286 334 L 312 362 L 336 334 L 360 360 L 380 332 C 380 412 330 452 256 452 C 182 452 132 412 132 332 Z"
        fill="url(#bd1-shell)" stroke="#C9AE7C" stroke-width="10" stroke-linejoin="round"/>
  <circle cx="206" cy="402" r="10" fill="#E8CD96"/>
  <circle cx="296" cy="412" r="8" fill="#E8CD96"/>
  <ellipse cx="196" cy="160" rx="28" ry="17" fill="#FFFFFF" opacity="0.5" transform="rotate(-22 196 160)"/>
</svg>
