<svg xmlns="http://www.w3.org/2000/svg" viewBox="0 0 512 512" fill="none">
  <defs>
    <radialGradient id="bd2-body" cx="0.36" cy="0.3" r="1">
      <stop offset="0" stop-color="#FFF2B8"/><stop offset="0.55" stop-color="#FFDD66"/><stop offset="1" stop-color="#F2BB3C"/>
    </radialGradient>
  </defs>
  <ellipse cx="256" cy="456" rx="118" ry="17" fill="#8A6B3A" opacity="0.15"/>
  <!-- 身體 -->
  <path d="M256 116 C 158 116 118 220 118 312 C 118 400 180 448 256 448 C 332 448 394 400 394 312 C 394 220 354 116 256 116 Z"
        fill="url(#bd2-body)" stroke="#B97E26" stroke-width="11"/>
  <!-- 呆毛 -->
  <path d="M248 118 q-6 -38 12 -54 q12 24 2 52" fill="#FFDD66" stroke="#B97E26" stroke-width="8" stroke-linejoin="round"/>
  <!-- 翅膀芽 -->
  <path d="M126 300 q-44 10 -56 48 q34 16 68 -6 q-8 -22 -12 -42 z" fill="#F7C843" stroke="#B97E26" stroke-width="9" stroke-linejoin="round"/>
  <path d="M386 300 q44 10 56 48 q-34 16 -68 -6 q8 -22 12 -42 z" fill="#F7C843" stroke="#B97E26" stroke-width="9" stroke-linejoin="round"/>
  <!-- 眼睛 -->
  <ellipse cx="206" cy="268" rx="21" ry="27" fill="#3A2A14"/>
  <circle cx="199" cy="258" r="8.5" fill="#FFFFFF"/><circle cx="213" cy="279" r="4" fill="#FFFFFF" opacity="0.9"/>
  <ellipse cx="306" cy="268" rx="21" ry="27" fill="#3A2A14"/>
  <circle cx="299" cy="258" r="8.5" fill="#FFFFFF"/><circle cx="313" cy="279" r="4" fill="#FFFFFF" opacity="0.9"/>
  <!-- 嘴喙（微張） -->
  <path d="M236 300 L 256 322 L 276 300 Q 256 290 236 300 Z" fill="#F49B3C" stroke="#C76A1B" stroke-width="7" stroke-linejoin="round"/>
  <path d="M244 312 Q 256 320 268 312 L 256 330 Z" fill="#E5832C"/>
  <ellipse cx="170" cy="306" rx="16" ry="11" fill="#FF9EA0" opacity="0.65"/>
  <ellipse cx="342" cy="306" rx="16" ry="11" fill="#FF9EA0" opacity="0.65"/>
  <!-- 肚毛痕 -->
  <path d="M216 392 q8 10 20 2 M276 392 q8 10 20 2" stroke="#E8B84E" stroke-width="6" fill="none" stroke-linecap="round"/>
  <!-- 腳 -->
  <path d="M218 448 l-10 22 M218 448 l0 24 M218 448 l10 22" stroke="#E5832C" stroke-width="8" stroke-linecap="round"/>
  <path d="M294 448 l-10 22 M294 448 l0 24 M294 448 l10 22" stroke="#E5832C" stroke-width="8" stroke-linecap="round"/>
  <ellipse cx="198" cy="186" rx="30" ry="18" fill="#FFFFFF" opacity="0.45" transform="rotate(-20 198 186)"/>
</svg>
