<svg xmlns="http://www.w3.org/2000/svg" viewBox="0 0 512 512" fill="none">
  <!-- 幼鳥 -->
  <ellipse cx="256" cy="440" rx="98" ry="16" fill="#000000" opacity="0.06"/>
  <!-- 翅膀 -->
  <ellipse cx="204" cy="366" rx="13" ry="22" fill="#F2C95C"/>
  <ellipse cx="308" cy="366" rx="13" ry="22" fill="#F2C95C"/>
  <!-- 身體 -->
  <circle cx="256" cy="356" r="52" fill="#F6D98A"/>
  <ellipse cx="256" cy="376" rx="33" ry="26" fill="#FCEBB6"/>
  <!-- 頭頂呆毛 -->
  <path d="M256 306 q-4 -16 6 -24 q-2 12 6 18" fill="none" stroke="#F2C95C" stroke-width="4" stroke-linecap="round"/>
  <!-- 臉 -->
  <path d="M256 352 l-9 10 l18 0 z" fill="#EFA15A"/>
  <circle cx="240" cy="342" r="5.2" fill="#3A3A3A"/>
  <circle cx="272" cy="342" r="5.2" fill="#3A3A3A"/>
  <circle cx="241.8" cy="340.2" r="1.7" fill="#fff"/>
  <circle cx="273.8" cy="340.2" r="1.7" fill="#fff"/>
  <ellipse cx="224" cy="354" rx="6" ry="4" fill="#F3A9A0" opacity="0.6"/>
  <ellipse cx="288" cy="354" rx="6" ry="4" fill="#F3A9A0" opacity="0.6"/>
  <!-- 腳 -->
  <g stroke="#EFA15A" stroke-width="4.5" stroke-linecap="round"><path d="M242 404 v12"/><path d="M270 404 v12"/></g>
</svg>
