<svg xmlns="http://www.w3.org/2000/svg" viewBox="0 0 512 512" fill="none">
  <defs>
    <radialGradient id="bd3-body" cx="0.36" cy="0.3" r="1">
      <stop offset="0" stop-color="#FFF2B8"/><stop offset="0.55" stop-color="#FFDD66"/><stop offset="1" stop-color="#F2BB3C"/>
    </radialGradient>
    <radialGradient id="bd3-chest" cx="0.5" cy="0.3" r="0.9">
      <stop offset="0" stop-color="#FFE9C4"/><stop offset="1" stop-color="#F8C56F"/>
    </radialGradient>
  </defs>
  <ellipse cx="256" cy="458" rx="122" ry="17" fill="#8A6B3A" opacity="0.15"/>
  <!-- 尾羽 -->
  <path d="M352 380 q56 -8 76 -44 q-44 -12 -84 8 z" fill="#F7C843" stroke="#B97E26" stroke-width="9" stroke-linejoin="round"/>
  <path d="M356 400 q60 6 88 -18 q-38 -24 -86 -14 z" fill="#FFDD66" stroke="#B97E26" stroke-width="9" stroke-linejoin="round"/>
  <!-- 身體 -->
  <path d="M256 112 C 158 112 118 218 118 312 C 118 402 180 450 256 450 C 332 450 394 402 394 312 C 394 218 354 112 256 112 Z"
        fill="url(#bd3-body)" stroke="#B97E26" stroke-width="11"/>
  <!-- 冠羽（三根） -->
  <path d="M222 124 q-18 -34 -4 -58 q16 16 16 50" fill="#F7973C" stroke="#C76A1B" stroke-width="7" stroke-linejoin="round"/>
  <path d="M252 116 q-4 -42 16 -60 q12 26 0 58" fill="#F7973C" stroke="#C76A1B" stroke-width="7" stroke-linejoin="round"/>
  <path d="M288 124 q14 -34 -2 -56 q-16 18 -14 50" fill="#F7973C" stroke="#C76A1B" stroke-width="7" stroke-linejoin="round"/>
  <!-- 胸口 -->
  <ellipse cx="256" cy="380" rx="72" ry="54" fill="url(#bd3-chest)"/>
  <path d="M208 360 q10 12 24 4 M280 360 q10 12 24 4 M244 396 q10 12 24 4" stroke="#E8B84E" stroke-width="6" fill="none" stroke-linecap="round"/>
  <!-- 翅膀 -->
  <path d="M128 296 q-52 16 -64 62 q42 18 80 -10 q-10 -26 -16 -52 z" fill="#F7C843" stroke="#B97E26" stroke-width="9" stroke-linejoin="round"/>
  <path d="M82 330 l44 22" stroke="#C9952D" stroke-width="6" stroke-linecap="round" opacity="0.7"/>
  <path d="M384 296 q52 16 64 62 q-42 18 -80 -10 q10 -26 16 -52 z" fill="#F7C843" stroke="#B97E26" stroke-width="9" stroke-linejoin="round"/>
  <path d="M430 330 l-44 22" stroke="#C9952D" stroke-width="6" stroke-linecap="round" opacity="0.7"/>
  <!-- 眼睛 -->
  <ellipse cx="206" cy="262" rx="21" ry="27" fill="#3A2A14"/>
  <circle cx="199" cy="252" r="8.5" fill="#FFFFFF"/><circle cx="213" cy="273" r="4" fill="#FFFFFF" opacity="0.9"/>
  <ellipse cx="306" cy="262" rx="21" ry="27" fill="#3A2A14"/>
  <circle cx="299" cy="252" r="8.5" fill="#FFFFFF"/><circle cx="313" cy="273" r="4" fill="#FFFFFF" opacity="0.9"/>
  <path d="M236 296 L 256 318 L 276 296 Q 256 286 236 296 Z" fill="#F49B3C" stroke="#C76A1B" stroke-width="7" stroke-linejoin="round"/>
  <ellipse cx="170" cy="300" rx="16" ry="11" fill="#FF9EA0" opacity="0.6"/>
  <ellipse cx="342" cy="300" rx="16" ry="11" fill="#FF9EA0" opacity="0.6"/>
  <path d="M216 450 l-12 24 M216 450 l0 26 M216 450 l12 24" stroke="#E5832C" stroke-width="8" stroke-linecap="round"/>
  <path d="M296 450 l-12 24 M296 450 l0 26 M296 450 l12 24" stroke="#E5832C" stroke-width="8" stroke-linecap="round"/>
  <ellipse cx="198" cy="182" rx="30" ry="18" fill="#FFFFFF" opacity="0.45" transform="rotate(-20 198 182)"/>
</svg>
