<svg xmlns="http://www.w3.org/2000/svg" viewBox="0 0 512 512" fill="none">
  <!-- 成鳥 -->
  <ellipse cx="256" cy="442" rx="100" ry="16" fill="#000000" opacity="0.06"/>
  <!-- 尾巴 -->
  <path d="M312 384 q40 6 52 26 q-30 4 -52 -8 z" fill="#F2C95C"/>
  <!-- 身體 -->
  <circle cx="252" cy="352" r="56" fill="#F6D98A"/>
  <ellipse cx="252" cy="374" rx="36" ry="28" fill="#FCEBB6"/>
  <!-- 收合的翅膀 -->
  <path d="M214 344 q-30 18 -10 56 q22 -8 28 -34 z" fill="#F2C95C"/>
  <!-- 呆毛 -->
  <path d="M252 298 q-5 -18 7 -27 q-2 13 7 20" fill="none" stroke="#F2C95C" stroke-width="4" stroke-linecap="round"/>
  <!-- 臉 -->
  <path d="M252 346 l-10 11 l20 0 z" fill="#EFA15A"/>
  <circle cx="235" cy="336" r="5.5" fill="#3A3A3A"/>
  <circle cx="269" cy="336" r="5.5" fill="#3A3A3A"/>
  <circle cx="237" cy="334" r="1.8" fill="#fff"/>
  <circle cx="271" cy="334" r="1.8" fill="#fff"/>
  <ellipse cx="219" cy="348" rx="6.5" ry="4.2" fill="#F3A9A0" opacity="0.6"/>
  <ellipse cx="285" cy="348" rx="6.5" ry="4.2" fill="#F3A9A0" opacity="0.6"/>
  <g stroke="#EFA15A" stroke-width="5" stroke-linecap="round"><path d="M238 404 v14"/><path d="M266 404 v14"/></g>
</svg>
