<svg xmlns="http://www.w3.org/2000/svg" viewBox="0 0 512 512" fill="none">
  <defs>
    <radialGradient id="bd4-body" cx="0.36" cy="0.3" r="1">
      <stop offset="0" stop-color="#FFF2B8"/><stop offset="0.55" stop-color="#FFD75E"/><stop offset="1" stop-color="#EFB23A"/>
    </radialGradient>
    <radialGradient id="bd4-chest" cx="0.5" cy="0.3" r="0.9">
      <stop offset="0" stop-color="#FFE2B0"/><stop offset="1" stop-color="#F7AE5C"/>
    </radialGradient>
    <linearGradient id="bd4-wing" x1="0" y1="0" x2="1" y2="1">
      <stop offset="0" stop-color="#FFD75E"/><stop offset="1" stop-color="#F7973C"/>
    </linearGradient>
  </defs>
  <ellipse cx="256" cy="458" rx="126" ry="17" fill="#8A6B3A" opacity="0.15"/>
  <!-- 尾羽（三根） -->
  <path d="M346 360 q66 -22 84 -66 q-52 -8 -96 22 z" fill="#F7973C" stroke="#C76A1B" stroke-width="9" stroke-linejoin="round"/>
  <path d="M352 384 q70 -8 94 -42 q-46 -20 -96 0 z" fill="#FFD75E" stroke="#B97E26" stroke-width="9" stroke-linejoin="round"/>
  <path d="M354 408 q68 8 98 -14 q-40 -28 -94 -22 z" fill="#F7C843" stroke="#B97E26" stroke-width="9" stroke-linejoin="round"/>
  <!-- 身體 -->
  <path d="M256 110 C 156 110 116 218 116 312 C 116 404 178 452 256 452 C 334 452 396 404 396 312 C 396 218 356 110 256 110 Z"
        fill="url(#bd4-body)" stroke="#B97E26" stroke-width="11"/>
  <!-- 冠羽 -->
  <path d="M214 124 q-22 -36 -6 -64 q20 18 20 54" fill="#F7973C" stroke="#C76A1B" stroke-width="7" stroke-linejoin="round"/>
  <path d="M250 114 q-4 -46 18 -66 q14 28 0 64" fill="#F7973C" stroke="#C76A1B" stroke-width="7" stroke-linejoin="round"/>
  <path d="M290 122 q16 -38 0 -62 q-18 20 -16 56" fill="#F7973C" stroke="#C76A1B" stroke-width="7" stroke-linejoin="round"/>
  <!-- 胸口 -->
  <ellipse cx="256" cy="378" rx="76" ry="58" fill="url(#bd4-chest)"/>
  <path d="M204 354 q10 14 26 6 M282 354 q10 14 26 6 M242 392 q10 14 26 6" stroke="#E09A45" stroke-width="6" fill="none" stroke-linecap="round"/>
  <!-- 大翅膀（收合外張） -->
  <path d="M132 270 C 84 252 36 262 12 292 C 48 330 96 352 148 340 C 144 316 138 292 132 270 Z"
        fill="url(#bd4-wing)" stroke="#B97E26" stroke-width="10" stroke-linejoin="round"/>
  <path d="M36 290 q50 26 104 38 M62 272 q44 20 86 32" stroke="#C9952D" stroke-width="6" stroke-linecap="round" opacity="0.7"/>
  <path d="M380 270 C 428 252 476 262 500 292 C 464 330 416 352 364 340 C 368 316 374 292 380 270 Z"
        fill="url(#bd4-wing)" stroke="#B97E26" stroke-width="10" stroke-linejoin="round"/>
  <path d="M476 290 q-50 26 -104 38 M450 272 q-44 20 -86 32" stroke="#C9952D" stroke-width="6" stroke-linecap="round" opacity="0.7"/>
  <!-- 眼睛 -->
  <ellipse cx="206" cy="258" rx="22" ry="28" fill="#3A2A14"/>
  <circle cx="198" cy="247" r="9" fill="#FFFFFF"/><circle cx="214" cy="270" r="4" fill="#FFFFFF" opacity="0.9"/>
  <ellipse cx="306" cy="258" rx="22" ry="28" fill="#3A2A14"/>
  <circle cx="298" cy="247" r="9" fill="#FFFFFF"/><circle cx="314" cy="270" r="4" fill="#FFFFFF" opacity="0.9"/>
  <path d="M234 294 L 256 318 L 278 294 Q 256 283 234 294 Z" fill="#F49B3C" stroke="#C76A1B" stroke-width="7" stroke-linejoin="round"/>
  <ellipse cx="168" cy="298" rx="16" ry="11" fill="#FF9EA0" opacity="0.55"/>
  <ellipse cx="344" cy="298" rx="16" ry="11" fill="#FF9EA0" opacity="0.55"/>
  <path d="M214 452 l-12 24 M214 452 l0 26 M214 452 l12 24" stroke="#E5832C" stroke-width="8" stroke-linecap="round"/>
  <path d="M298 452 l-12 24 M298 452 l0 26 M298 452 l12 24" stroke="#E5832C" stroke-width="8" stroke-linecap="round"/>
  <ellipse cx="196" cy="180" rx="32" ry="19" fill="#FFFFFF" opacity="0.45" transform="rotate(-20 196 180)"/>
</svg>
