<svg xmlns="http://www.w3.org/2000/svg" viewBox="0 0 512 512" fill="none">
  <!-- 展翅 -->
  <ellipse cx="256" cy="446" rx="86" ry="14" fill="#000000" opacity="0.06"/>
  <!-- 展開的雙翅 -->
  <path d="M214 348 q-58 -34 -94 -16 q26 28 70 38 z" fill="#F2C95C"/>
  <path d="M298 348 q58 -34 94 -16 q-26 28 -70 38 z" fill="#F2C95C"/>
  <path d="M214 348 q-58 -34 -94 -16 q26 28 70 38 z" fill="#FFFFFF" opacity="0.18"/>
  <path d="M298 348 q58 -34 94 -16 q-26 28 -70 38 z" fill="#FFFFFF" opacity="0.18"/>
  <!-- 身體 -->
  <circle cx="256" cy="356" r="54" fill="#F6D98A"/>
  <ellipse cx="256" cy="378" rx="35" ry="27" fill="#FCEBB6"/>
  <!-- 呆毛 -->
  <path d="M256 304 q-5 -18 7 -27 q-2 13 7 20" fill="none" stroke="#F2C95C" stroke-width="4" stroke-linecap="round"/>
  <!-- 臉（開心） -->
  <path d="M256 352 l-10 11 l20 0 z" fill="#EFA15A"/>
  <path d="M236 340 q5 -7 12 0" fill="none" stroke="#3A3A3A" stroke-width="4.5" stroke-linecap="round"/>
  <path d="M264 340 q5 -7 12 0" fill="none" stroke="#3A3A3A" stroke-width="4.5" stroke-linecap="round"/>
  <ellipse cx="226" cy="352" rx="6.5" ry="4.2" fill="#F3A9A0" opacity="0.6"/>
  <ellipse cx="286" cy="352" rx="6.5" ry="4.2" fill="#F3A9A0" opacity="0.6"/>
  <g stroke="#EFA15A" stroke-width="5" stroke-linecap="round"><path d="M244 406 v12"/><path d="M268 406 v12"/></g>
</svg>
