<svg xmlns="http://www.w3.org/2000/svg" viewBox="0 0 512 512" fill="none">
  <defs>
    <radialGradient id="bd5-aura" cx="0.5" cy="0.5" r="0.5">
      <stop offset="0" stop-color="#FFE08A" stop-opacity="0.6"/><stop offset="0.7" stop-color="#FFB35C" stop-opacity="0.25"/><stop offset="1" stop-color="#FFB35C" stop-opacity="0"/>
    </radialGradient>
    <radialGradient id="bd5-body" cx="0.36" cy="0.3" r="1">
      <stop offset="0" stop-color="#FFF4C0"/><stop offset="0.55" stop-color="#FFD75E"/><stop offset="1" stop-color="#EFB23A"/>
    </radialGradient>
    <radialGradient id="bd5-chest" cx="0.5" cy="0.3" r="0.9">
      <stop offset="0" stop-color="#FFE2B0"/><stop offset="1" stop-color="#F7AE5C"/>
    </radialGradient>
    <linearGradient id="bd5-wing" x1="0" y1="1" x2="0.8" y2="0">
      <stop offset="0" stop-color="#FFD75E"/><stop offset="0.6" stop-color="#FF9E4D"/><stop offset="1" stop-color="#F45D48"/>
    </linearGradient>
    <linearGradient id="bd5-tail" x1="0" y1="0" x2="1" y2="0">
      <stop offset="0" stop-color="#FFD75E"/><stop offset="0.6" stop-color="#FF9E4D"/><stop offset="1" stop-color="#F45D48"/>
    </linearGradient>
  </defs>
  <circle cx="256" cy="262" r="228" fill="url(#bd5-aura)"/>
  <ellipse cx="256" cy="470" rx="100" ry="13" fill="#8A6B3A" opacity="0.13"/>
  <!-- 火羽尾 -->
  <path d="M338 356 q72 -28 92 -82 q-58 -6 -104 32 z" fill="url(#bd5-tail)" stroke="#C76A1B" stroke-width="9" stroke-linejoin="round"/>
  <path d="M346 386 q80 -10 108 -50 q-52 -22 -108 2 z" fill="url(#bd5-tail)" stroke="#C76A1B" stroke-width="9" stroke-linejoin="round"/>
  <path d="M348 414 q78 10 112 -16 q-46 -32 -106 -26 z" fill="url(#bd5-tail)" stroke="#C76A1B" stroke-width="9" stroke-linejoin="round"/>
  <!-- 展翅（向上張開） -->
  <path d="M150 274 C 110 196 96 122 116 58 C 168 96 206 162 208 240 C 188 256 168 266 150 274 Z"
        fill="url(#bd5-wing)" stroke="#B97E26" stroke-width="10" stroke-linejoin="round"/>
  <path d="M132 110 q26 80 56 138 M160 86 q22 70 44 124" stroke="#D9822B" stroke-width="6" stroke-linecap="round" opacity="0.65"/>
  <path d="M362 274 C 402 196 416 122 396 58 C 344 96 306 162 304 240 C 324 256 344 266 362 274 Z"
        fill="url(#bd5-wing)" stroke="#B97E26" stroke-width="10" stroke-linejoin="round"/>
  <path d="M380 110 q-26 80 -56 138 M352 86 q-22 70 -44 124" stroke="#D9822B" stroke-width="6" stroke-linecap="round" opacity="0.65"/>
  <!-- 身體 -->
  <path d="M256 122 C 160 122 122 224 122 314 C 122 402 182 448 256 448 C 330 448 390 402 390 314 C 390 224 352 122 256 122 Z"
        fill="url(#bd5-body)" stroke="#B97E26" stroke-width="11"/>
  <!-- 大冠羽 -->
  <path d="M208 132 q-28 -40 -8 -72 q24 20 26 60" fill="#F45D48" stroke="#C2402E" stroke-width="7" stroke-linejoin="round"/>
  <path d="M248 120 q-6 -50 20 -74 q16 30 0 72" fill="#FF7A50" stroke="#C2402E" stroke-width="7" stroke-linejoin="round"/>
  <path d="M292 130 q20 -42 2 -70 q-22 22 -20 62" fill="#F45D48" stroke="#C2402E" stroke-width="7" stroke-linejoin="round"/>
  <!-- 胸口 -->
  <ellipse cx="256" cy="376" rx="74" ry="56" fill="url(#bd5-chest)"/>
  <path d="M206 352 q10 14 26 6 M280 352 q10 14 26 6 M242 390 q10 14 26 6" stroke="#E09A45" stroke-width="6" fill="none" stroke-linecap="round"/>
  <!-- 眼睛（亮金瞳） -->
  <ellipse cx="206" cy="256" rx="22" ry="28" fill="#3A2A14"/>
  <ellipse cx="206" cy="258" rx="11" ry="15" fill="#F2A93C"/>
  <circle cx="198" cy="245" r="8.5" fill="#FFFFFF"/><circle cx="214" cy="268" r="4" fill="#FFFFFF" opacity="0.9"/>
  <ellipse cx="306" cy="256" rx="22" ry="28" fill="#3A2A14"/>
  <ellipse cx="306" cy="258" rx="11" ry="15" fill="#F2A93C"/>
  <circle cx="298" cy="245" r="8.5" fill="#FFFFFF"/><circle cx="314" cy="268" r="4" fill="#FFFFFF" opacity="0.9"/>
  <path d="M234 292 L 256 316 L 278 292 Q 256 281 234 292 Z" fill="#F49B3C" stroke="#C76A1B" stroke-width="7" stroke-linejoin="round"/>
  <ellipse cx="168" cy="296" rx="16" ry="11" fill="#FF9EA0" opacity="0.55"/>
  <ellipse cx="344" cy="296" rx="16" ry="11" fill="#FF9EA0" opacity="0.55"/>
  <path d="M218 448 l-12 22 M218 448 l0 24 M218 448 l12 22" stroke="#E5832C" stroke-width="8" stroke-linecap="round"/>
  <path d="M294 448 l-12 22 M294 448 l0 24 M294 448 l12 22" stroke="#E5832C" stroke-width="8" stroke-linecap="round"/>
  <ellipse cx="198" cy="186" rx="30" ry="18" fill="#FFFFFF" opacity="0.5" transform="rotate(-20 198 186)"/>
  <!-- 星光 -->
  <path d="M84 120 l7 17 17 7 -17 7 -7 17 -7 -17 -17 -7 17 -7 z" fill="#FFD75E"/>
  <path d="M436 110 l5 13 13 5 -13 5 -5 13 -5 -13 -13 -5 13 -5 z" fill="#FF9E4D"/>
  <path d="M448 390 l4 11 11 4 -11 4 -4 11 -4 -11 -11 -4 11 -4 z" fill="#FFD75E"/>
  <path d="M62 370 l4 11 11 4 -11 4 -4 11 -4 -11 -11 -4 11 -4 z" fill="#FF9E4D"/>
</svg>
