<svg xmlns="http://www.w3.org/2000/svg" viewBox="0 0 512 512" fill="none">
  <defs>
    <radialGradient id="ca3-pot" cx="0.35" cy="0.2" r="1.1">
      <stop offset="0" stop-color="#F2D2A0"/><stop offset="0.6" stop-color="#E0B978"/><stop offset="1" stop-color="#C49654"/>
    </radialGradient>
    <radialGradient id="ca3-body" cx="0.35" cy="0.3" r="1">
      <stop offset="0" stop-color="#9ADB94"/><stop offset="0.6" stop-color="#6FBF73"/><stop offset="1" stop-color="#4A9655"/>
    </radialGradient>
  </defs>
  <ellipse cx="256" cy="460" rx="148" ry="16" fill="#8E6A2E" opacity="0.14"/>
  <path d="M136 334 L 376 334 L 356 440 Q 354 460 328 460 L 184 460 Q 158 460 156 440 Z"
        fill="url(#ca3-pot)" stroke="#A87C3E" stroke-width="11" stroke-linejoin="round"/>
  <rect x="116" y="308" width="280" height="42" rx="21" fill="#EDCB92" stroke="#A87C3E" stroke-width="11"/>
  <path d="M184 370 q-6 34 4 66" stroke="#FFFFFF" stroke-width="12" stroke-linecap="round" opacity="0.32"/>
  <ellipse cx="256" cy="322" rx="108" ry="23" fill="#E8D3A0"/>
  <ellipse cx="256" cy="318" rx="108" ry="21" fill="#F2E2B8"/>
  <!-- 手臂（一上一橫） -->
  <path d="M150 240 C 110 240 92 210 92 168 C 92 140 106 124 128 124 C 152 124 164 144 162 172"
        fill="url(#ca3-body)" stroke="#357A42" stroke-width="11" stroke-linejoin="round"/>
  <path d="M362 262 C 402 262 422 234 422 200 C 422 174 408 158 388 158 C 366 158 354 176 356 200"
        fill="url(#ca3-body)" stroke="#357A42" stroke-width="11" stroke-linejoin="round"/>
  <path d="M104 150 l-18 -8 M104 192 l-20 2 M410 184 l18 -8 M410 224 l20 2" stroke="#FCFAEF" stroke-width="7" stroke-linecap="round"/>
  <!-- 主體 -->
  <path d="M256 78 C 194 78 164 132 164 202 C 164 282 202 326 256 326 C 310 326 348 282 348 202 C 348 132 318 78 256 78 Z"
        fill="url(#ca3-body)" stroke="#357A42" stroke-width="11"/>
  <path d="M212 102 q-12 96 0 196 M 300 102 q12 96 0 196" stroke="#4A9655" stroke-width="6" fill="none" stroke-linecap="round" opacity="0.6"/>
  <path d="M180 150 l-20 -10 M176 220 l-22 0 M338 150 l20 -10 M342 220 l22 0 M222 88 l-8 -18 M290 88 l8 -18" stroke="#FCFAEF" stroke-width="7" stroke-linecap="round"/>
  <!-- 臉 -->
  <ellipse cx="222" cy="212" rx="20" ry="25" fill="#2C4222"/>
  <circle cx="216" cy="202" r="8" fill="#FFFFFF"/><circle cx="228" cy="221" r="3.5" fill="#FFFFFF" opacity="0.9"/>
  <ellipse cx="290" cy="212" rx="20" ry="25" fill="#2C4222"/>
  <circle cx="284" cy="202" r="8" fill="#FFFFFF"/><circle cx="296" cy="221" r="3.5" fill="#FFFFFF" opacity="0.9"/>
  <path d="M240 248 q16 14 32 0" stroke="#2C4222" stroke-width="7" fill="none" stroke-linecap="round"/>
  <ellipse cx="192" cy="250" rx="14" ry="9" fill="#F09A9C" opacity="0.65"/>
  <ellipse cx="320" cy="250" rx="14" ry="9" fill="#F09A9C" opacity="0.65"/>
  <ellipse cx="212" cy="124" rx="26" ry="15" fill="#FFFFFF" opacity="0.4" transform="rotate(-20 212 124)"/>
</svg>
