<svg xmlns="http://www.w3.org/2000/svg" viewBox="0 0 512 512" fill="none">
  <defs>
    <radialGradient id="sp2-pot" cx="0.35" cy="0.2" r="1.1">
      <stop offset="0" stop-color="#F0B98C"/><stop offset="0.6" stop-color="#D98A5F"/><stop offset="1" stop-color="#B86A42"/>
    </radialGradient>
    <radialGradient id="sp2-head" cx="0.35" cy="0.3" r="1">
      <stop offset="0" stop-color="#C4E8A8"/><stop offset="0.6" stop-color="#9AD47C"/><stop offset="1" stop-color="#6FAE57"/>
    </radialGradient>
  </defs>
  <ellipse cx="256" cy="462" rx="140" ry="16" fill="#7E4A2C" opacity="0.14"/>
  <path d="M132 322 L 380 322 L 358 436 Q 356 458 330 458 L 182 458 Q 156 458 154 436 Z"
        fill="url(#sp2-pot)" stroke="#9A5634" stroke-width="11" stroke-linejoin="round"/>
  <rect x="112" y="296" width="288" height="42" rx="21" fill="#E8A77D" stroke="#9A5634" stroke-width="11"/>
  <path d="M180 358 q-6 40 4 78" stroke="#FFFFFF" stroke-width="12" stroke-linecap="round" opacity="0.3"/>
  <ellipse cx="256" cy="310" rx="112" ry="24" fill="#6B4A33"/>
  <ellipse cx="256" cy="306" rx="112" ry="22" fill="#7E5A40"/>
  <!-- 莖 -->
  <path d="M256 300 L 256 232" stroke="#4F8A3C" stroke-width="16" stroke-linecap="round"/>
  <!-- 葉子手手 -->
  <path d="M248 272 C 216 250 180 248 156 264 C 170 292 204 302 240 290 C 246 284 248 278 248 272 Z"
        fill="#9AD47C" stroke="#4F8A3C" stroke-width="9" stroke-linejoin="round"/>
  <path d="M264 272 C 296 250 332 248 356 264 C 342 292 308 302 272 290 C 266 284 264 278 264 272 Z"
        fill="#9AD47C" stroke="#4F8A3C" stroke-width="9" stroke-linejoin="round"/>
  <!-- 頭 -->
  <circle cx="256" cy="166" r="92" fill="url(#sp2-head)" stroke="#4F8A3C" stroke-width="11"/>
  <path d="M256 74 q-4 -28 12 -42" stroke="#4F8A3C" stroke-width="10" fill="none" stroke-linecap="round"/>
  <path d="M270 32 C 296 20 320 24 332 38 C 320 58 296 64 274 54 C 270 48 268 40 270 32 Z"
        fill="#B8E29B" stroke="#4F8A3C" stroke-width="8" stroke-linejoin="round"/>
  <!-- 臉 -->
  <ellipse cx="222" cy="158" rx="20" ry="25" fill="#2C4222"/>
  <circle cx="216" cy="148" r="8" fill="#FFFFFF"/><circle cx="228" cy="167" r="3.5" fill="#FFFFFF" opacity="0.9"/>
  <ellipse cx="290" cy="158" rx="20" ry="25" fill="#2C4222"/>
  <circle cx="284" cy="148" r="8" fill="#FFFFFF"/><circle cx="296" cy="167" r="3.5" fill="#FFFFFF" opacity="0.9"/>
  <path d="M240 194 q16 14 32 0" stroke="#2C4222" stroke-width="7" fill="none" stroke-linecap="round"/>
  <ellipse cx="192" cy="196" rx="14" ry="9" fill="#F09A9C" opacity="0.65"/>
  <ellipse cx="320" cy="196" rx="14" ry="9" fill="#F09A9C" opacity="0.65"/>
  <ellipse cx="212" cy="110" rx="28" ry="16" fill="#FFFFFF" opacity="0.4" transform="rotate(-20 212 110)"/>
</svg>
