<svg xmlns="http://www.w3.org/2000/svg" viewBox="0 0 512 512" fill="none">
  <!-- 含苞 -->
  <ellipse cx="256" cy="478" rx="98" ry="13" fill="#000000" opacity="0.05"/>
  <rect x="168" y="372" width="176" height="26" rx="10" fill="#DCA988"/>
  <path d="M182 398 L198 458 Q200 470 212 470 L300 470 Q312 470 314 458 L330 398 Z" fill="#CE9476"/>
  <ellipse cx="256" cy="386" rx="74" ry="12" fill="#7A5C46"/>
  <path d="M256 388 C252 338 260 292 256 250" stroke="#7FA87D" stroke-width="10" stroke-linecap="round"/>
  <g transform="translate(256 356) rotate(-62)"><path d="M0 0 C -15 -7 -15 -32 0 -44 C 15 -32 15 -7 0 0 Z" fill="#7FAE80"/></g>
  <g transform="translate(256 356) rotate(62)"><path d="M0 0 C -15 -7 -15 -32 0 -44 C 15 -32 15 -7 0 0 Z" fill="#8BB789"/></g>
  <g transform="translate(256 316) rotate(-50)"><path d="M0 0 C -14 -6 -14 -30 0 -40 C 14 -30 14 -6 0 0 Z" fill="#8BB789"/></g>
  <g transform="translate(256 316) rotate(50)"><path d="M0 0 C -14 -6 -14 -30 0 -40 C 14 -30 14 -6 0 0 Z" fill="#9CC39A"/></g>
  <!-- 花苞 -->
  <g transform="translate(256 232)">
    <path d="M0 26 C -17 26 -19 -6 0 -24 C 19 -6 17 26 0 26 Z" fill="#8BB789"/>
    <path d="M0 -24 C 11 -15 11 4 0 9 C -11 4 -11 -15 0 -24 Z" fill="#E7A6B0"/>
    <path d="M0 -24 C 5 -16 5 -2 0 4" stroke="#F0C2CB" stroke-width="2" fill="none" opacity="0.8"/>
  </g>
</svg>
