<svg xmlns="http://www.w3.org/2000/svg" viewBox="0 0 512 512" fill="none">
  <defs>
    <radialGradient id="sp5-aura" cx="0.5" cy="0.5" r="0.5">
      <stop offset="0" stop-color="#FAD2E2" stop-opacity="0.65"/><stop offset="0.7" stop-color="#EE8FB4" stop-opacity="0.25"/><stop offset="1" stop-color="#EE8FB4" stop-opacity="0"/>
    </radialGradient>
    <radialGradient id="sp5-pot" cx="0.35" cy="0.2" r="1.1">
      <stop offset="0" stop-color="#F0B98C"/><stop offset="0.6" stop-color="#D98A5F"/><stop offset="1" stop-color="#B86A42"/>
    </radialGradient>
    <radialGradient id="sp5-head" cx="0.35" cy="0.3" r="1">
      <stop offset="0" stop-color="#C4E8A8"/><stop offset="0.6" stop-color="#9AD47C"/><stop offset="1" stop-color="#6FAE57"/>
    </radialGradient>
    <radialGradient id="sp5-petal" cx="0.5" cy="0.35" r="0.9">
      <stop offset="0" stop-color="#FBD3E2"/><stop offset="1" stop-color="#EE8FB4"/>
    </radialGradient>
  </defs>
  <circle cx="256" cy="230" r="230" fill="url(#sp5-aura)"/>
  <ellipse cx="256" cy="466" rx="134" ry="15" fill="#7E4A2C" opacity="0.13"/>
  <path d="M140 342 L 372 342 L 354 446 Q 352 464 326 464 L 186 464 Q 160 464 158 446 Z"
        fill="url(#sp5-pot)" stroke="#9A5634" stroke-width="11" stroke-linejoin="round"/>
  <rect x="120" y="316" width="272" height="42" rx="21" fill="#E8A77D" stroke="#9A5634" stroke-width="11"/>
  <path d="M188 378 q-6 34 4 66" stroke="#FFFFFF" stroke-width="12" stroke-linecap="round" opacity="0.3"/>
  <ellipse cx="256" cy="330" rx="104" ry="22" fill="#6B4A33"/>
  <ellipse cx="256" cy="326" rx="104" ry="20" fill="#7E5A40"/>
  <path d="M256 322 L 256 254" stroke="#4F8A3C" stroke-width="17" stroke-linecap="round"/>
  <path d="M248 310 C 214 294 180 296 158 312 C 174 338 210 344 244 328 C 247 322 248 316 248 310 Z"
        fill="#86C268" stroke="#4F8A3C" stroke-width="9" stroke-linejoin="round"/>
  <path d="M264 310 C 298 294 332 296 354 312 C 338 338 302 344 268 328 C 265 322 264 316 264 310 Z"
        fill="#86C268" stroke="#4F8A3C" stroke-width="9" stroke-linejoin="round"/>
  <!-- 頭 -->
  <circle cx="256" cy="196" r="88" fill="url(#sp5-head)" stroke="#4F8A3C" stroke-width="11"/>
  <!-- 盛開的大花冠 -->
  <g stroke="#C9608C" stroke-width="8" stroke-linejoin="round">
    <ellipse cx="256" cy="40" rx="34" ry="44" fill="url(#sp5-petal)"/>
    <ellipse cx="196" cy="62" rx="34" ry="42" fill="url(#sp5-petal)" transform="rotate(-42 196 62)"/>
    <ellipse cx="316" cy="62" rx="34" ry="42" fill="url(#sp5-petal)" transform="rotate(42 316 62)"/>
    <ellipse cx="178" cy="116" rx="32" ry="40" fill="url(#sp5-petal)" transform="rotate(-78 178 116)"/>
    <ellipse cx="334" cy="116" rx="32" ry="40" fill="url(#sp5-petal)" transform="rotate(78 334 116)"/>
  </g>
  <circle cx="256" cy="92" r="34" fill="#FFD66B" stroke="#D9A437" stroke-width="8"/>
  <circle cx="246" cy="82" r="9" fill="#FFFFFF" opacity="0.7"/>
  <!-- 臉 -->
  <ellipse cx="224" cy="192" rx="20" ry="25" fill="#2C4222"/>
  <circle cx="218" cy="182" r="8" fill="#FFFFFF"/><circle cx="230" cy="201" r="3.5" fill="#FFFFFF" opacity="0.9"/>
  <ellipse cx="288" cy="192" rx="20" ry="25" fill="#2C4222"/>
  <circle cx="282" cy="182" r="8" fill="#FFFFFF"/><circle cx="294" cy="201" r="3.5" fill="#FFFFFF" opacity="0.9"/>
  <path d="M238 226 q18 16 36 0" stroke="#2C4222" stroke-width="7" fill="none" stroke-linecap="round"/>
  <ellipse cx="192" cy="228" rx="14" ry="9" fill="#F09A9C" opacity="0.65"/>
  <ellipse cx="320" cy="228" rx="14" ry="9" fill="#F09A9C" opacity="0.65"/>
  <ellipse cx="216" cy="146" rx="26" ry="15" fill="#FFFFFF" opacity="0.4" transform="rotate(-20 216 146)"/>
  <!-- 飄落花瓣 + 星光 -->
  <ellipse cx="108" cy="200" rx="13" ry="8" fill="#F4ABC8" transform="rotate(-30 108 200)"/>
  <ellipse cx="404" cy="180" rx="13" ry="8" fill="#F4ABC8" transform="rotate(28 404 180)"/>
  <ellipse cx="396" cy="300" rx="11" ry="7" fill="#F4ABC8" transform="rotate(-20 396 300)"/>
  <path d="M88 90 l6 15 15 6 -15 6 -6 15 -6 -15 -15 -6 15 -6 z" fill="#FFD66B"/>
  <path d="M428 84 l5 13 13 5 -13 5 -5 13 -5 -13 -13 -5 13 -5 z" fill="#EE8FB4"/>
</svg>
