<svg xmlns="http://www.w3.org/2000/svg" viewBox="0 0 512 512" fill="none">
  <defs>
    <linearGradient id="fb-tea" x1="0" y1="0" x2="0" y2="1">
      <stop offset="0" stop-color="#E8C49A"/><stop offset="1" stop-color="#C28B52"/>
    </linearGradient>
    <radialGradient id="fb-cup" cx="0.35" cy="0.2" r="1.2">
      <stop offset="0" stop-color="#FFFFFF" stop-opacity="0.5"/><stop offset="1" stop-color="#FFFFFF" stop-opacity="0.12"/>
    </radialGradient>
  </defs>
  <ellipse cx="256" cy="456" rx="120" ry="16" fill="#5E3D22" opacity="0.15"/>
  <!-- 吸管 -->
  <rect x="296" y="44" width="34" height="150" rx="16" fill="#F45D8C" stroke="#C23A66" stroke-width="8" transform="rotate(14 313 119)"/>
  <!-- 杯身 -->
  <path d="M158 160 L 354 160 L 332 428 Q 330 456 300 456 L 212 456 Q 182 456 180 428 Z"
        fill="url(#fb-tea)" stroke="#5E3D22" stroke-width="11" stroke-linejoin="round"/>
  <!-- 杯蓋 -->
  <rect x="144" y="132" width="224" height="38" rx="19" fill="#F8F2E2" stroke="#C9AE7C" stroke-width="9"/>
  <path d="M168 132 q88 -26 176 0" fill="#F8F2E2" stroke="#C9AE7C" stroke-width="9" stroke-linejoin="round"/>
  <!-- 玻璃光 -->
  <path d="M188 184 q-8 110 8 240" stroke="#FFF6E8" stroke-width="14" stroke-linecap="round" opacity="0.55"/>
  <rect x="166" y="166" width="180" height="276" fill="url(#fb-cup)"/>
  <!-- 珍珠（底層小夥伴） -->
  <g stroke="#1E1410" stroke-width="6">
    <circle cx="208" cy="414" r="20" fill="#3A2A20"/>
    <circle cx="256" cy="422" r="20" fill="#3A2A20"/>
    <circle cx="304" cy="412" r="20" fill="#3A2A20"/>
    <circle cx="232" cy="380" r="18" fill="#3A2A20"/>
    <circle cx="282" cy="378" r="18" fill="#3A2A20"/>
  </g>
  <circle cx="202" cy="408" r="6" fill="#FFFFFF" opacity="0.7"/>
  <circle cx="250" cy="416" r="6" fill="#FFFFFF" opacity="0.7"/>
  <circle cx="298" cy="406" r="6" fill="#FFFFFF" opacity="0.7"/>
  <!-- 臉 -->
  <ellipse cx="218" cy="266" rx="20" ry="25" fill="#3A2414"/>
  <circle cx="211" cy="256" r="8" fill="#FFFFFF"/><circle cx="224" cy="275" r="3.5" fill="#FFFFFF" opacity="0.9"/>
  <ellipse cx="294" cy="266" rx="20" ry="25" fill="#3A2414"/>
  <circle cx="287" cy="256" r="8" fill="#FFFFFF"/><circle cx="300" cy="275" r="3.5" fill="#FFFFFF" opacity="0.9"/>
  <path d="M234 300 q22 18 44 0" stroke="#3A2414" stroke-width="8" fill="none" stroke-linecap="round"/>
  <ellipse cx="186" cy="300" rx="13" ry="9" fill="#F09A9C" opacity="0.6"/>
  <ellipse cx="326" cy="300" rx="13" ry="9" fill="#F09A9C" opacity="0.6"/>
  <path d="M412 210 l5 13 13 5 -13 5 -5 13 -5 -13 -13 -5 13 -5 z" fill="#F45D8C"/>
</svg>
