<svg xmlns="http://www.w3.org/2000/svg" viewBox="0 0 512 512" fill="none">
  <defs>
    <radialGradient id="cp5-aura" cx="0.5" cy="0.5" r="0.5">
      <stop offset="0" stop-color="#FFE0B8" stop-opacity="0.6"/><stop offset="0.7" stop-color="#F7B36C" stop-opacity="0.25"/><stop offset="1" stop-color="#F7B36C" stop-opacity="0"/>
    </radialGradient>
    <radialGradient id="cp5-water" cx="0.5" cy="0.2" r="1">
      <stop offset="0" stop-color="#BFE6F2"/><stop offset="1" stop-color="#7CC2DC"/>
    </radialGradient>
    <radialGradient id="cp5-fur" cx="0.36" cy="0.28" r="1">
      <stop offset="0" stop-color="#E0C29A"/><stop offset="0.55" stop-color="#B98F5E"/><stop offset="1" stop-color="#94683C"/>
    </radialGradient>
  </defs>
  <circle cx="256" cy="258" r="232" fill="url(#cp5-aura)"/>
  <path d="M104 330 L 408 330 L 392 436 Q 390 458 362 458 L 150 458 Q 122 458 120 436 Z"
        fill="#A9744C" stroke="#6E4426" stroke-width="11" stroke-linejoin="round"/>
  <path d="M134 330 v110 M186 330 v122 M256 330 v124 M326 330 v122 M378 330 v110" stroke="#8A5A34" stroke-width="7" opacity="0.7"/>
  <ellipse cx="256" cy="330" rx="152" ry="30" fill="url(#cp5-water)" stroke="#4F8AA8" stroke-width="9"/>
  <!-- 滿桶橘子 -->
  <circle cx="148" cy="318" r="22" fill="#F7973C" stroke="#C76A1B" stroke-width="7"/>
  <circle cx="368" cy="320" r="20" fill="#F7973C" stroke="#C76A1B" stroke-width="7"/>
  <circle cx="318" cy="334" r="16" fill="#F7973C" stroke="#C76A1B" stroke-width="6"/>
  <path d="M104 234 q-16 -30 6 -52 M408 234 q16 -30 -6 -52 M86 300 q-12 -20 2 -38" stroke="#C2DCE8" stroke-width="10" fill="none" stroke-linecap="round" opacity="0.85"/>
  <!-- 頭 -->
  <path d="M256 134 C 174 134 136 188 136 248 C 136 304 188 338 256 338 C 324 338 376 304 376 248 C 376 188 338 134 256 134 Z"
        fill="url(#cp5-fur)" stroke="#5E3D22" stroke-width="11"/>
  <path d="M170 164 q-12 -28 10 -40 q18 12 14 38" fill="#B98F5E" stroke="#5E3D22" stroke-width="8" stroke-linejoin="round"/>
  <path d="M342 164 q12 -28 -10 -40 q-18 12 -14 38" fill="#B98F5E" stroke="#5E3D22" stroke-width="8" stroke-linejoin="round"/>
  <!-- 頭巾 + 橘子 -->
  <path d="M150 174 Q 256 116 362 174 L 354 134 Q 256 82 158 134 Z" fill="#F8F2E2" stroke="#C9AE7C" stroke-width="9" stroke-linejoin="round"/>
  <circle cx="244" cy="88" r="28" fill="#F7973C" stroke="#C76A1B" stroke-width="8"/>
  <!-- 頭上的小黃鳥 -->
  <circle cx="318" cy="84" r="22" fill="#FFDD66" stroke="#B97E26" stroke-width="7"/>
  <path d="M336 84 l16 6 -16 6 z" fill="#F49B3C" stroke="#C76A1B" stroke-width="5" stroke-linejoin="round"/>
  <circle cx="312" cy="78" r="4.5" fill="#3A2A14"/>
  <path d="M300 102 q-10 10 -22 8" stroke="#B97E26" stroke-width="6" fill="none" stroke-linecap="round"/>
  <!-- 終極放鬆臉 -->
  <path d="M196 242 q14 10 28 0" stroke="#3A2414" stroke-width="8" fill="none" stroke-linecap="round"/>
  <path d="M288 242 q14 10 28 0" stroke="#3A2414" stroke-width="8" fill="none" stroke-linecap="round"/>
  <rect x="222" y="272" width="68" height="44" rx="20" fill="#E0C29A" stroke="#5E3D22" stroke-width="8"/>
  <circle cx="242" cy="288" r="5" fill="#3A2414"/><circle cx="270" cy="288" r="5" fill="#3A2414"/>
  <path d="M244 304 q12 10 24 0" stroke="#3A2414" stroke-width="6" fill="none" stroke-linecap="round"/>
  <ellipse cx="178" cy="272" rx="13" ry="9" fill="#F09A9C" opacity="0.6"/>
  <ellipse cx="334" cy="272" rx="13" ry="9" fill="#F09A9C" opacity="0.6"/>
  <ellipse cx="198" cy="192" rx="24" ry="13" fill="#FFFFFF" opacity="0.35" transform="rotate(-18 198 192)"/>
  <path d="M84 110 l6 15 15 6 -15 6 -6 15 -6 -15 -15 -6 15 -6 z" fill="#F7973C"/>
  <path d="M436 96 l5 13 13 5 -13 5 -5 13 -5 -13 -13 -5 13 -5 z" fill="#FFDD66"/>
</svg>
