<svg xmlns="http://www.w3.org/2000/svg" viewBox="0 0 512 512" fill="none">
  <defs>
    <radialGradient id="bn1-pot" cx="0.35" cy="0.2" r="1.1">
      <stop offset="0" stop-color="#C2DCD2"/><stop offset="0.6" stop-color="#9DBFB4"/><stop offset="1" stop-color="#7FA396"/>
    </radialGradient>
    <radialGradient id="bn1-trunk" cx="0.35" cy="0.3" r="1">
      <stop offset="0" stop-color="#C39A72"/><stop offset="1" stop-color="#8E6240"/>
    </radialGradient>
  </defs>
  <ellipse cx="256" cy="460" rx="150" ry="16" fill="#3E5C50" opacity="0.14"/>
  <path d="M104 348 L 408 348 L 392 432 Q 390 452 364 452 L 148 452 Q 122 452 120 432 Z"
        fill="url(#bn1-pot)" stroke="#5E7E72" stroke-width="11" stroke-linejoin="round"/>
  <rect x="88" y="324" width="336" height="40" rx="20" fill="#B4D2C6" stroke="#5E7E72" stroke-width="11"/>
  <path d="M150 382 q-4 28 4 50" stroke="#FFFFFF" stroke-width="11" stroke-linecap="round" opacity="0.35"/>
  <ellipse cx="256" cy="338" rx="142" ry="24" fill="#6B4A33"/>
  <ellipse cx="256" cy="334" rx="142" ry="22" fill="#7E5A40"/>
  <!-- 小樹苗軀幹（有臉） -->
  <path d="M256 196 C 222 196 204 228 204 264 C 204 302 226 330 256 330 C 286 330 308 302 308 264 C 308 228 290 196 256 196 Z"
        fill="url(#bn1-trunk)" stroke="#6E4426" stroke-width="10"/>
  <!-- 頂上新芽 -->
  <path d="M256 198 q-2 -30 10 -44" stroke="#4A7A4E" stroke-width="10" fill="none" stroke-linecap="round"/>
  <path d="M268 152 C 292 138 316 142 330 156 C 318 178 294 184 272 174 C 268 168 266 160 268 152 Z"
        fill="#9CCB90" stroke="#4A7A4E" stroke-width="8" stroke-linejoin="round"/>
  <path d="M252 154 C 230 138 206 138 192 150 C 202 172 224 180 248 172 C 251 166 252 160 252 154 Z"
        fill="#B8DCA8" stroke="#4A7A4E" stroke-width="8" stroke-linejoin="round"/>
  <!-- 樹皮紋 -->
  <path d="M226 300 q8 8 18 4 M286 296 q-6 10 -16 8" stroke="#6E4426" stroke-width="5" fill="none" stroke-linecap="round" opacity="0.55"/>
  <!-- 臉 -->
  <ellipse cx="230" cy="252" rx="17" ry="22" fill="#3D2A18"/>
  <circle cx="225" cy="244" r="6.5" fill="#FFFFFF"/><circle cx="235" cy="260" r="3" fill="#FFFFFF" opacity="0.9"/>
  <ellipse cx="282" cy="252" rx="17" ry="22" fill="#3D2A18"/>
  <circle cx="277" cy="244" r="6.5" fill="#FFFFFF"/><circle cx="287" cy="260" r="3" fill="#FFFFFF" opacity="0.9"/>
  <path d="M244 286 q12 10 24 0" stroke="#3D2A18" stroke-width="6" fill="none" stroke-linecap="round"/>
  <ellipse cx="206" cy="284" rx="12" ry="8" fill="#F09A9C" opacity="0.6"/>
  <ellipse cx="306" cy="284" rx="12" ry="8" fill="#F09A9C" opacity="0.6"/>
  <ellipse cx="230" cy="218" rx="18" ry="11" fill="#FFFFFF" opacity="0.3" transform="rotate(-20 230 218)"/>
</svg>
