<svg xmlns="http://www.w3.org/2000/svg" viewBox="0 0 512 512" fill="none">
  <!-- 抽枝 -->
  <ellipse cx="256" cy="478" rx="98" ry="13" fill="#000000" opacity="0.05"/>
  <rect x="168" y="372" width="176" height="26" rx="10" fill="#DCA988"/>
  <path d="M182 398 L198 458 Q200 470 212 470 L300 470 Q312 470 314 458 L330 398 Z" fill="#CE9476"/>
  <ellipse cx="256" cy="386" rx="74" ry="12" fill="#7A5C46"/>
  <path d="M256 388 C254 352 258 332 256 318" stroke="#9C6F4E" stroke-width="10" stroke-linecap="round"/>
  <path d="M256 344 Q236 338 224 322" stroke="#9C6F4E" stroke-width="6" fill="none" stroke-linecap="round"/>
  <path d="M256 336 Q278 330 290 316" stroke="#9C6F4E" stroke-width="6" fill="none" stroke-linecap="round"/>
  <circle cx="220" cy="316" r="19" fill="#8BB789"/>
  <circle cx="292" cy="310" r="19" fill="#9CC39A"/>
  <circle cx="256" cy="300" r="22" fill="#7FAE80"/>
  <circle cx="248" cy="294" r="7" fill="#9CC39A" opacity="0.5"/>
</svg>
