<svg xmlns="http://www.w3.org/2000/svg" viewBox="0 0 512 512" fill="none">
  <!-- 盆栽 -->
  <ellipse cx="256" cy="478" rx="98" ry="13" fill="#000000" opacity="0.05"/>
  <rect x="168" y="372" width="176" height="26" rx="10" fill="#DCA988"/>
  <path d="M182 398 L198 458 Q200 470 212 470 L300 470 Q312 470 314 458 L330 398 Z" fill="#CE9476"/>
  <ellipse cx="256" cy="386" rx="74" ry="12" fill="#7A5C46"/>
  <path d="M256 388 C250 354 262 336 256 322" stroke="#9C6F4E" stroke-width="12" stroke-linecap="round"/>
  <path d="M256 348 Q230 344 214 326" stroke="#9C6F4E" stroke-width="7" fill="none" stroke-linecap="round"/>
  <path d="M256 340 Q284 336 300 320" stroke="#9C6F4E" stroke-width="7" fill="none" stroke-linecap="round"/>
  <g fill="#8BB789">
    <ellipse cx="212" cy="312" rx="32" ry="24"/>
    <ellipse cx="300" cy="306" rx="30" ry="23"/>
    <ellipse cx="256" cy="288" rx="38" ry="28"/>
  </g>
  <g fill="#9CC39A" opacity="0.55">
    <ellipse cx="246" cy="280" rx="16" ry="11"/>
    <ellipse cx="206" cy="306" rx="12" ry="8"/>
  </g>
</svg>
