<svg xmlns="http://www.w3.org/2000/svg" viewBox="0 0 512 512" fill="none">
  <defs>
    <radialGradient id="bn3-pot" cx="0.35" cy="0.2" r="1.1">
      <stop offset="0" stop-color="#C2DCD2"/><stop offset="0.6" stop-color="#9DBFB4"/><stop offset="1" stop-color="#7FA396"/>
    </radialGradient>
    <radialGradient id="bn3-trunk" cx="0.35" cy="0.3" r="1">
      <stop offset="0" stop-color="#C39A72"/><stop offset="1" stop-color="#8E6240"/>
    </radialGradient>
    <radialGradient id="bn3-leaf" cx="0.35" cy="0.3" r="1">
      <stop offset="0" stop-color="#A8D49A"/><stop offset="1" stop-color="#6FA268"/>
    </radialGradient>
  </defs>
  <ellipse cx="256" cy="460" rx="150" ry="16" fill="#3E5C50" opacity="0.14"/>
  <path d="M104 354 L 408 354 L 392 436 Q 390 456 364 456 L 148 456 Q 122 456 120 436 Z"
        fill="url(#bn3-pot)" stroke="#5E7E72" stroke-width="11" stroke-linejoin="round"/>
  <rect x="88" y="330" width="336" height="40" rx="20" fill="#B4D2C6" stroke="#5E7E72" stroke-width="11"/>
  <path d="M150 388 q-4 26 4 44" stroke="#FFFFFF" stroke-width="11" stroke-linecap="round" opacity="0.35"/>
  <ellipse cx="256" cy="344" rx="142" ry="24" fill="#6B4A33"/>
  <ellipse cx="256" cy="340" rx="142" ry="22" fill="#7E5A40"/>
  <!-- 彎枝 + 雙樹冠 -->
  <path d="M268 210 Q 290 160 330 140 M 246 212 Q 210 180 186 178" stroke="#8E6240" stroke-width="16" fill="none" stroke-linecap="round"/>
  <circle cx="346" cy="110" r="62" fill="url(#bn3-leaf)" stroke="#4A7A4E" stroke-width="10"/>
  <circle cx="296" cy="86" r="40" fill="url(#bn3-leaf)" stroke="#4A7A4E" stroke-width="10"/>
  <circle cx="166" cy="150" r="52" fill="url(#bn3-leaf)" stroke="#4A7A4E" stroke-width="10"/>
  <ellipse cx="326" cy="86" rx="22" ry="13" fill="#FFFFFF" opacity="0.35" transform="rotate(-18 326 86)"/>
  <ellipse cx="150" cy="128" rx="18" ry="11" fill="#FFFFFF" opacity="0.35" transform="rotate(-18 150 128)"/>
  <!-- 軀幹 -->
  <path d="M256 204 C 222 204 206 234 206 268 C 206 304 228 332 256 332 C 284 332 306 304 306 268 C 306 234 290 204 256 204 Z"
        fill="url(#bn3-trunk)" stroke="#6E4426" stroke-width="10"/>
  <path d="M224 308 q10 8 20 4 M290 304 q-8 10 -18 8" stroke="#6E4426" stroke-width="5" fill="none" stroke-linecap="round" opacity="0.5"/>
  <!-- 臉 -->
  <ellipse cx="232" cy="258" rx="17" ry="22" fill="#3D2A18"/>
  <circle cx="227" cy="250" r="6.5" fill="#FFFFFF"/><circle cx="237" cy="266" r="3" fill="#FFFFFF" opacity="0.9"/>
  <ellipse cx="280" cy="258" rx="17" ry="22" fill="#3D2A18"/>
  <circle cx="275" cy="250" r="6.5" fill="#FFFFFF"/><circle cx="285" cy="266" r="3" fill="#FFFFFF" opacity="0.9"/>
  <path d="M244 290 q12 10 24 0" stroke="#3D2A18" stroke-width="6" fill="none" stroke-linecap="round"/>
  <ellipse cx="208" cy="288" rx="12" ry="8" fill="#F09A9C" opacity="0.6"/>
  <ellipse cx="304" cy="288" rx="12" ry="8" fill="#F09A9C" opacity="0.6"/>
</svg>
