<svg xmlns="http://www.w3.org/2000/svg" viewBox="0 0 512 512" fill="none">
  <defs>
    <radialGradient id="fl1-seg" cx="0.35" cy="0.3" r="1">
      <stop offset="0" stop-color="#B8E29B"/><stop offset="0.6" stop-color="#8CCB6E"/><stop offset="1" stop-color="#69A84F"/>
    </radialGradient>
    <radialGradient id="fl1-head" cx="0.35" cy="0.3" r="1">
      <stop offset="0" stop-color="#C4E8A8"/><stop offset="0.6" stop-color="#9AD47C"/><stop offset="1" stop-color="#74B05A"/>
    </radialGradient>
  </defs>
  <ellipse cx="256" cy="442" rx="170" ry="20" fill="#3F6E33" opacity="0.13"/>
  <!-- 身體節（由後往前） -->
  <circle cx="408" cy="380" r="54" fill="url(#fl1-seg)" stroke="#4F8A3C" stroke-width="10"/>
  <circle cx="332" cy="372" r="62" fill="url(#fl1-seg)" stroke="#4F8A3C" stroke-width="10"/>
  <circle cx="248" cy="368" r="68" fill="url(#fl1-seg)" stroke="#4F8A3C" stroke-width="10"/>
  <!-- 頭 -->
  <circle cx="150" cy="330" r="92" fill="url(#fl1-head)" stroke="#4F8A3C" stroke-width="11"/>
  <!-- 觸角球 -->
  <path d="M104 252 q-18 -34 -4 -56" stroke="#4F8A3C" stroke-width="9" fill="none" stroke-linecap="round"/>
  <circle cx="98" cy="190" r="14" fill="#F2BB3C" stroke="#C9952D" stroke-width="7"/>
  <path d="M186 244 q10 -38 32 -50" stroke="#4F8A3C" stroke-width="9" fill="none" stroke-linecap="round"/>
  <circle cx="224" cy="188" r="14" fill="#F2BB3C" stroke="#C9952D" stroke-width="7"/>
  <!-- 眼睛 -->
  <ellipse cx="118" cy="318" rx="18" ry="23" fill="#2C4222"/>
  <circle cx="112" cy="310" r="7" fill="#FFFFFF"/><circle cx="123" cy="327" r="3.5" fill="#FFFFFF" opacity="0.9"/>
  <ellipse cx="188" cy="318" rx="18" ry="23" fill="#2C4222"/>
  <circle cx="182" cy="310" r="7" fill="#FFFFFF"/><circle cx="193" cy="327" r="3.5" fill="#FFFFFF" opacity="0.9"/>
  <path d="M138 352 q15 14 30 0" stroke="#2C4222" stroke-width="7" fill="none" stroke-linecap="round"/>
  <ellipse cx="92" cy="352" rx="13" ry="9" fill="#F09A9C" opacity="0.65"/>
  <ellipse cx="212" cy="352" rx="13" ry="9" fill="#F09A9C" opacity="0.65"/>
  <!-- 高光 + 腳點 -->
  <ellipse cx="116" cy="270" rx="24" ry="14" fill="#FFFFFF" opacity="0.4" transform="rotate(-18 116 270)"/>
  <circle cx="230" cy="430" r="9" fill="#4F8A3C"/><circle cx="280" cy="432" r="9" fill="#4F8A3C"/>
  <circle cx="330" cy="430" r="9" fill="#4F8A3C"/><circle cx="378" cy="428" r="9" fill="#4F8A3C"/>
  <circle cx="418" cy="426" r="9" fill="#4F8A3C"/>
</svg>
