<svg xmlns="http://www.w3.org/2000/svg" viewBox="0 0 512 512" fill="none">
  <!-- 幼蟲 -->
  <ellipse cx="256" cy="430" rx="104" ry="16" fill="#000000" opacity="0.06"/>
  <g stroke="#7FAE80" stroke-width="4" stroke-linecap="round">
    <path d="M186 402 v10"/><path d="M222 396 v12"/><path d="M286 396 v12"/><path d="M320 402 v10"/>
  </g>
  <g fill="#9DBF7E">
    <circle cx="180" cy="384" r="20"/>
    <circle cx="214" cy="374" r="22"/>
    <circle cx="250" cy="370" r="23"/>
    <circle cx="286" cy="374" r="22"/>
  </g>
  <g fill="#B6D29A" opacity="0.6">
    <circle cx="174" cy="378" r="7"/><circle cx="208" cy="368" r="7"/><circle cx="244" cy="364" r="7"/><circle cx="280" cy="368" r="7"/>
  </g>
  <!-- 頭 -->
  <circle cx="324" cy="378" r="24" fill="#A9C98A"/>
  <g stroke="#7FAE80" stroke-width="3" stroke-linecap="round"><path d="M330 356 q4 -14 14 -18"/><path d="M318 356 q-2 -14 -8 -20"/></g>
  <circle cx="344" cy="338" r="3" fill="#9DBF7E"/><circle cx="310" cy="336" r="3" fill="#9DBF7E"/>
  <circle cx="320" cy="374" r="4" fill="#3A3A3A"/><circle cx="335" cy="374" r="4" fill="#3A3A3A"/>
  <circle cx="321" cy="372.6" r="1.3" fill="#fff"/><circle cx="336" cy="372.6" r="1.3" fill="#fff"/>
  <path d="M322 386 q6 5 12 0" fill="none" stroke="#5C7A4A" stroke-width="2.5" stroke-linecap="round"/>
  <ellipse cx="314" cy="384" rx="4" ry="2.6" fill="#F3A9A0" opacity="0.55"/>
</svg>
