<svg xmlns="http://www.w3.org/2000/svg" viewBox="0 0 512 512" fill="none">
  <defs>
    <radialGradient id="fl2-pod" cx="0.35" cy="0.25" r="1">
      <stop offset="0" stop-color="#C9E8C2"/><stop offset="0.55" stop-color="#8FC892"/><stop offset="1" stop-color="#5E9C68"/>
    </radialGradient>
  </defs>
  <ellipse cx="256" cy="452" rx="96" ry="14" fill="#3F6E33" opacity="0.12"/>
  <!-- 樹枝 -->
  <path d="M120 86 q136 -22 272 0" stroke="#8A6240" stroke-width="18" fill="none" stroke-linecap="round"/>
  <path d="M256 86 l0 36" stroke="#8A6240" stroke-width="12" stroke-linecap="round"/>
  <!-- 絲線 -->
  <path d="M256 120 q-8 14 0 26" stroke="#C9BD8C" stroke-width="7" fill="none" stroke-linecap="round"/>
  <!-- 蛹 -->
  <path d="M256 140 C 184 150 156 230 160 300 C 164 374 204 428 256 428 C 308 428 348 374 352 300 C 356 230 328 150 256 140 Z"
        fill="url(#fl2-pod)" stroke="#4F8A3C" stroke-width="11"/>
  <!-- 螺旋金線 -->
  <path d="M170 250 q86 -28 172 0 M166 304 q90 26 180 0 M186 364 q70 22 140 0" stroke="#E8CD7A" stroke-width="8" fill="none" stroke-linecap="round" opacity="0.85"/>
  <!-- 睡臉 -->
  <path d="M212 282 q10 10 20 0 M280 282 q10 10 20 0" stroke="#3D6B33" stroke-width="7" fill="none" stroke-linecap="round"/>
  <path d="M244 316 q12 10 24 0" stroke="#3D6B33" stroke-width="7" fill="none" stroke-linecap="round"/>
  <ellipse cx="198" cy="312" rx="13" ry="9" fill="#F09A9C" opacity="0.55"/>
  <ellipse cx="314" cy="312" rx="13" ry="9" fill="#F09A9C" opacity="0.55"/>
  <!-- 內裡微光（快羽化了） -->
  <ellipse cx="256" cy="350" rx="44" ry="30" fill="#D9B8F2" opacity="0.35"/>
  <ellipse cx="212" cy="196" rx="28" ry="16" fill="#FFFFFF" opacity="0.5" transform="rotate(-22 212 196)"/>
  <path d="M392 180 l5 13 13 5 -13 5 -5 13 -5 -13 -13 -5 13 -5 z" fill="#B795EC"/>
  <path d="M116 320 l4 11 11 4 -11 4 -4 11 -4 -11 -11 -4 11 -4 z" fill="#8CCB6E"/>
</svg>
