<svg xmlns="http://www.w3.org/2000/svg" viewBox="0 0 512 512" fill="none">
  <!-- 成蝶 -->
  <ellipse cx="256" cy="450" rx="68" ry="12" fill="#000000" opacity="0.05"/>
  <g transform="translate(256 360)">
    <g>
      <g>
        <path d="M-6 -16 C -46 -50 -92 -44 -96 -8 C -98 22 -54 26 -6 6 Z" fill="#C3B3E0"/>
        <path d="M-6 8 C -40 10 -70 30 -64 56 C -60 74 -26 66 -6 36 Z" fill="#F2C4A0"/>
        <circle cx="-60" cy="-14" r="8" fill="#E8A6C0"/>
        <circle cx="-44" cy="42" r="5" fill="#EBD08A"/>
        <circle cx="-80" cy="-4" r="3.5" fill="#ffffff" opacity="0.5"/>
      </g>
      <g transform="scale(-1,1)">
        <path d="M-6 -16 C -46 -50 -92 -44 -96 -8 C -98 22 -54 26 -6 6 Z" fill="#C3B3E0"/>
        <path d="M-6 8 C -40 10 -70 30 -64 56 C -60 74 -26 66 -6 36 Z" fill="#F2C4A0"/>
        <circle cx="-60" cy="-14" r="8" fill="#E8A6C0"/>
        <circle cx="-44" cy="42" r="5" fill="#EBD08A"/>
        <circle cx="-80" cy="-4" r="3.5" fill="#ffffff" opacity="0.5"/>
      </g>
    </g>
    <ellipse cx="0" cy="6" rx="9" ry="38" fill="#6B6357"/>
    <circle cx="0" cy="-34" r="11" fill="#6B6357"/>
    <g stroke="#6B6357" stroke-width="3" stroke-linecap="round" fill="none"><path d="M-2 -44 q-12 -18 -20 -22"/><path d="M2 -44 q12 -18 20 -22"/></g>
    <circle cx="-22" cy="-66" r="3.5" fill="#6B6357"/><circle cx="22" cy="-66" r="3.5" fill="#6B6357"/>
    <circle cx="-4" cy="-35" r="2.6" fill="#fff"/><circle cx="4" cy="-35" r="2.6" fill="#fff"/>
  </g>
</svg>
