<svg xmlns="http://www.w3.org/2000/svg" viewBox="0 0 512 512" fill="none">
  <!-- 幻彩蝶 -->
  <ellipse cx="256" cy="452" rx="76" ry="12" fill="#000000" opacity="0.05"/>
  <g fill="#FBE3A6">
    <path d="M118 196 l4 11 l11 4 l-11 4 l-4 11 l-4 -11 l-11 -4 l11 -4 z"/>
    <path d="M396 214 l3.5 9 l9 3.5 l-9 3.5 l-3.5 9 l-3.5 -9 l-9 -3.5 l9 -3.5 z"/>
    <path d="M370 150 l3 8 l8 3 l-8 3 l-3 8 l-3 -8 l-8 -3 l8 -3 z"/>
  </g>
  <g transform="translate(256 356) scale(1.12)">
    <g>
      <g>
        <path d="M-6 -16 C -46 -50 -92 -44 -96 -8 C -98 22 -54 26 -6 6 Z" fill="#B9A6E0"/>
        <path d="M-6 8 C -40 10 -70 30 -64 56 C -60 74 -26 66 -6 36 Z" fill="#F2BE96"/>
        <circle cx="-58" cy="-14" r="9" fill="#E89CC0"/>
        <circle cx="-78" cy="-2" r="4.5" fill="#F6E08A"/>
        <circle cx="-44" cy="44" r="6" fill="#EBD08A"/>
        <circle cx="-40" cy="28" r="3" fill="#ffffff" opacity="0.6"/>
      </g>
      <g transform="scale(-1,1)">
        <path d="M-6 -16 C -46 -50 -92 -44 -96 -8 C -98 22 -54 26 -6 6 Z" fill="#B9A6E0"/>
        <path d="M-6 8 C -40 10 -70 30 -64 56 C -60 74 -26 66 -6 36 Z" fill="#F2BE96"/>
        <circle cx="-58" cy="-14" r="9" fill="#E89CC0"/>
        <circle cx="-78" cy="-2" r="4.5" fill="#F6E08A"/>
        <circle cx="-44" cy="44" r="6" fill="#EBD08A"/>
        <circle cx="-40" cy="28" r="3" fill="#ffffff" opacity="0.6"/>
      </g>
    </g>
    <ellipse cx="0" cy="6" rx="9" ry="38" fill="#6B6357"/>
    <circle cx="0" cy="-34" r="11" fill="#6B6357"/>
    <g stroke="#6B6357" stroke-width="3" stroke-linecap="round" fill="none"><path d="M-2 -44 q-12 -18 -20 -22"/><path d="M2 -44 q12 -18 20 -22"/></g>
    <circle cx="-22" cy="-66" r="3.5" fill="#6B6357"/><circle cx="22" cy="-66" r="3.5" fill="#6B6357"/>
    <circle cx="-4" cy="-35" r="2.6" fill="#fff"/><circle cx="4" cy="-35" r="2.6" fill="#fff"/>
  </g>
</svg>
