<svg xmlns="http://www.w3.org/2000/svg" viewBox="0 0 512 512" fill="none">
  <defs>
    <radialGradient id="fl5-aura" cx="0.5" cy="0.5" r="0.5">
      <stop offset="0" stop-color="#E3C8FF" stop-opacity="0.6"/><stop offset="0.7" stop-color="#B795EC" stop-opacity="0.25"/><stop offset="1" stop-color="#B795EC" stop-opacity="0"/>
    </radialGradient>
    <linearGradient id="fl5-wing" x1="0" y1="0" x2="1" y2="1">
      <stop offset="0" stop-color="#8EE3F0"/><stop offset="0.45" stop-color="#A87FE8"/><stop offset="1" stop-color="#F06FA8"/>
    </linearGradient>
    <linearGradient id="fl5-wingb" x1="1" y1="0" x2="0" y2="1">
      <stop offset="0" stop-color="#F8C8DC"/><stop offset="0.6" stop-color="#C893E8"/><stop offset="1" stop-color="#8EC6F0"/>
    </linearGradient>
    <radialGradient id="fl5-body" cx="0.35" cy="0.3" r="1">
      <stop offset="0" stop-color="#9486B2"/><stop offset="1" stop-color="#54446A"/>
    </radialGradient>
  </defs>
  <circle cx="256" cy="256" r="234" fill="url(#fl5-aura)"/>
  <ellipse cx="256" cy="466" rx="104" ry="12" fill="#4A3A60" opacity="0.12"/>
  <!-- 上翅（幻彩） -->
  <path d="M238 238 C 182 130 96 76 20 88 C 28 200 86 290 190 314 C 210 290 228 264 238 238 Z"
        fill="url(#fl5-wing)" stroke="#5E3D92" stroke-width="11" stroke-linejoin="round"/>
  <path d="M274 238 C 330 130 416 76 492 88 C 484 200 426 290 322 314 C 302 290 284 264 274 238 Z"
        fill="url(#fl5-wing)" stroke="#5E3D92" stroke-width="11" stroke-linejoin="round"/>
  <!-- 下翅 + 燕尾 -->
  <path d="M222 322 C 156 318 94 354 78 420 C 96 428 112 430 128 426 L 120 462 L 158 438 C 196 444 234 424 246 384 C 240 362 230 340 222 322 Z"
        fill="url(#fl5-wingb)" stroke="#C0608E" stroke-width="11" stroke-linejoin="round"/>
  <path d="M290 322 C 356 318 418 354 434 420 C 416 428 400 430 384 426 L 392 462 L 354 438 C 316 444 278 424 266 384 C 272 362 282 340 290 322 Z"
        fill="url(#fl5-wingb)" stroke="#C0608E" stroke-width="11" stroke-linejoin="round"/>
  <!-- 翅紋 -->
  <circle cx="108" cy="166" r="28" fill="#FFFFFF" opacity="0.65"/>
  <circle cx="150" cy="236" r="15" fill="#FFE9F4" opacity="0.9"/>
  <circle cx="404" cy="166" r="28" fill="#FFFFFF" opacity="0.65"/>
  <circle cx="362" cy="236" r="15" fill="#FFE9F4" opacity="0.9"/>
  <circle cx="136" cy="392" r="15" fill="#FFFFFF" opacity="0.6"/>
  <circle cx="376" cy="392" r="15" fill="#FFFFFF" opacity="0.6"/>
  <path d="M58 124 q46 66 122 128 M454 124 q-46 66 -122 128" stroke="#FFFFFF" stroke-width="6" fill="none" opacity="0.45" stroke-linecap="round"/>
  <!-- 身體 -->
  <ellipse cx="256" cy="326" rx="44" ry="92" fill="url(#fl5-body)" stroke="#3E3252" stroke-width="10"/>
  <path d="M224 310 q32 12 64 0 M228 352 q28 12 56 0 M234 390 q22 10 44 0" stroke="#3E3252" stroke-width="6" fill="none" stroke-linecap="round" opacity="0.7"/>
  <!-- 頭 + 皇冠小星 -->
  <circle cx="256" cy="206" r="60" fill="url(#fl5-body)" stroke="#3E3252" stroke-width="10"/>
  <path d="M256 130 l6 16 16 6 -16 6 -6 16 -6 -16 -16 -6 16 -6 z" fill="#F2BB3C"/>
  <path d="M226 158 q-22 -42 -50 -50" stroke="#3E3252" stroke-width="8" fill="none" stroke-linecap="round"/>
  <circle cx="172" cy="104" r="12" fill="#8EE3F0" stroke="#4FA0B8" stroke-width="6"/>
  <path d="M286 158 q22 -42 50 -50" stroke="#3E3252" stroke-width="8" fill="none" stroke-linecap="round"/>
  <circle cx="340" cy="104" r="12" fill="#8EE3F0" stroke="#4FA0B8" stroke-width="6"/>
  <ellipse cx="232" cy="202" rx="14" ry="18" fill="#FFFFFF"/>
  <circle cx="232" cy="204" r="8.5" fill="#2A2138"/><circle cx="229" cy="199" r="3" fill="#FFFFFF"/>
  <ellipse cx="280" cy="202" rx="14" ry="18" fill="#FFFFFF"/>
  <circle cx="280" cy="204" r="8.5" fill="#2A2138"/><circle cx="277" cy="199" r="3" fill="#FFFFFF"/>
  <path d="M244 232 q12 10 24 0" stroke="#2A2138" stroke-width="6" fill="none" stroke-linecap="round"/>
  <ellipse cx="208" cy="230" rx="12" ry="8" fill="#F09A9C" opacity="0.6"/>
  <ellipse cx="304" cy="230" rx="12" ry="8" fill="#F09A9C" opacity="0.6"/>
  <!-- 星光 -->
  <path d="M76 300 l5 13 13 5 -13 5 -5 13 -5 -13 -13 -5 13 -5 z" fill="#8EE3F0"/>
  <path d="M442 300 l5 13 13 5 -13 5 -5 13 -5 -13 -13 -5 13 -5 z" fill="#F06FA8"/>
  <path d="M420 56 l6 15 15 6 -15 6 -6 15 -6 -15 -15 -6 15 -6 z" fill="#F2BB3C"/>
  <path d="M84 52 l5 13 13 5 -13 5 -5 13 -5 -13 -13 -5 13 -5 z" fill="#B795EC"/>
</svg>
